<?xml version="1.0" encoding="utf-8"?>
<!-- Generator: Adobe Illustrator 19.0.0, SVG Export Plug-In . SVG Version: 6.00 Build 0)  -->
<svg version="1.1" id="Layer_1" xmlns="http://www.w3.org/2000/svg" xmlns:xlink="http://www.w3.org/1999/xlink" x="0px" y="0px"
	 viewBox="5 -5 50 50" style="enable-background:new 5 -5 50 50;" xml:space="preserve">
<style type="text/css">
	.st0{fill:none;}
	.st1{fill:#2B3D51;stroke:#374259;stroke-width:2;stroke-miterlimit:10;}
</style>
<rect x="5" y="-5" class="st0" width="50" height="50"/>
<path class="st1" d="M19.8,25.3c0,0,2.3,4,2.9,5.1c0.6,1.1,0.7,2.1,0.3,2.8c-0.6,1-6.2,9.5-6.7,10.2c-0.5,0.7-1.9,1.1-3.3,0.1
	c-1.4-1-6.9-5.4-6.9-7.4c0.1-1.9,0.2-9.8,15.1-24.9C36.1-3.8,44-4,45.9-4.1c1.9-0.1,6.4,5.4,7.4,6.8c1,1.4,0.6,2.8-0.1,3.3
	c-0.8,0.6-9.2,6.2-10.1,6.8c-0.7,0.4-1.8,0.3-2.8-0.3c-1.1-0.6-5.1-2.9-5.1-2.9s-2.8,1.6-8.3,7.2C21.4,22.5,19.8,25.3,19.8,25.3z"/>
</svg>
