<?xml version="1.0" encoding="utf-8"?>
<!-- Generator: Adobe Illustrator 19.0.0, SVG Export Plug-In . SVG Version: 6.00 Build 0)  -->
<svg version="1.1" id="Layer_1" xmlns="http://www.w3.org/2000/svg" xmlns:xlink="http://www.w3.org/1999/xlink" x="0px" y="0px"
	 viewBox="0 0 457 469.5" style="enable-background:new 0 0 457 469.5;" xml:space="preserve">
<style type="text/css">
	.st0{fill:#333131;}
</style>
<g id="XMLID_1_">
	<g id="XMLID_20_">
		<path id="XMLID_24_" d="M7.9,86c10.8,5.5,21.7,11.1,32.5,16.6c25.9,13.2,51.7,26.4,77.6,39.6c31.4,16.1,62.9,32.1,94.3,48.2
			c27.2,13.9,54.4,27.8,81.5,41.6c13.2,6.7,26.2,13.7,39.5,20.2c0.2,0.1,0.4,0.2,0.6,0.3c7.2,3.7,16.3,1.9,20.5-5.4
			c3.9-6.7,1.9-16.8-5.4-20.5c-10.8-5.5-21.7-11.1-32.5-16.6c-25.9-13.2-51.7-26.4-77.6-39.6c-31.4-16.1-62.9-32.1-94.3-48.2
			c-27.2-13.9-54.4-27.8-81.5-41.6C50,73.8,36.9,66.8,23.7,60.3c-0.2-0.1-0.4-0.2-0.6-0.3c-7.2-3.7-16.3-1.9-20.5,5.4
			C-1.4,72.1,0.7,82.3,7.9,86L7.9,86z"/>
	</g>
</g>
<g id="XMLID_2_">
	<g id="XMLID_19_">
		<path id="XMLID_28_" d="M333.9,227.5c-10.8,5.2-21.5,10.5-32.3,15.7c-26,12.7-52,25.4-78.1,38c-31.3,15.3-62.7,30.5-94,45.8
			c-27.1,13.2-54.2,26.4-81.3,39.6C35,373.2,21.3,379,8.5,386.1c-0.2,0.1-0.4,0.2-0.5,0.3c-7.3,3.5-9.3,13.9-5.4,20.5
			c4.3,7.4,13.2,8.9,20.5,5.4c10.8-5.2,21.5-10.5,32.3-15.7c26-12.7,52-25.4,78.1-38c31.3-15.3,62.7-30.5,94-45.8
			c27.1-13.2,54.2-26.4,81.3-39.6c13.2-6.4,26.9-12.2,39.7-19.4c0.2-0.1,0.4-0.2,0.5-0.3c7.3-3.5,9.3-13.9,5.4-20.5
			C350.1,225.5,341.2,224,333.9,227.5L333.9,227.5z"/>
	</g>
</g>
<g id="XMLID_3_">
	<line id="XMLID_39_" class="st0" x1="441.5" y1="239.5" x2="15.5" y2="454.5"/>
	<g id="XMLID_29_">
		<path id="XMLID_33_" d="M433.9,226.5c-14.2,7.1-28.3,14.3-42.5,21.4c-33.9,17.1-67.7,34.2-101.6,51.3
			c-40.9,20.7-81.9,41.3-122.8,62c-35.5,17.9-71.1,35.9-106.6,53.8c-17.2,8.7-35,16.7-51.8,26.1c-0.2,0.1-0.5,0.2-0.7,0.4
			c-7.2,3.6-9.3,13.8-5.4,20.5c4.3,7.4,13.3,9,20.5,5.4c14.2-7.1,28.3-14.3,42.5-21.4c33.9-17.1,67.7-34.2,101.6-51.3
			c40.9-20.7,81.9-41.3,122.8-62c35.5-17.9,71.1-35.9,106.6-53.8c17.2-8.7,35-16.7,51.8-26.1c0.2-0.1,0.5-0.2,0.7-0.4
			c7.2-3.6,9.3-13.8,5.4-20.5C450.2,224.6,441.2,222.9,433.9,226.5L433.9,226.5z"/>
	</g>
</g>
<g id="XMLID_4_">
	<g id="XMLID_34_">
		<path id="XMLID_38_" d="M7.9,28.5C22,35.9,36.2,43.3,50.3,50.7c33.9,17.8,67.8,35.7,101.7,53.5c41.2,21.7,82.4,43.3,123.5,65
			c35.5,18.7,70.9,37.3,106.4,56c17.2,9.1,34.4,18.5,51.8,27.2c0.2,0.1,0.5,0.3,0.7,0.4c7.2,3.8,16.3,1.8,20.5-5.4
			c4-6.8,1.8-16.7-5.4-20.5c-14.1-7.4-28.2-14.8-42.3-22.3c-33.9-17.8-67.8-35.7-101.7-53.5c-41.2-21.7-82.4-43.3-123.5-65
			c-35.5-18.7-70.9-37.3-106.4-56C58.3,21.1,41.2,11.7,23.8,2.9c-0.2-0.1-0.5-0.3-0.7-0.4C15.9-1.2,6.8,0.7,2.5,7.9
			C-1.4,14.7,0.7,24.7,7.9,28.5L7.9,28.5z"/>
	</g>
</g>
</svg>
