<svg id="Layer_1" xmlns="http://www.w3.org/2000/svg" viewBox="5 -5 50 50"><style>.st0{fill:none}.st1{fill:#2b3d51;stroke:#374259;stroke-width:2;stroke-miterlimit:10}</style><path class="st0" d="M5-5h50v50H5z"/><path class="st1" d="M19.8 25.3s2.3 4 2.9 5.1c.6 1.1.7 2.1.3 2.8-.6 1-6.2 9.5-6.7 10.2-.5.7-1.9 1.1-3.3.1s-6.9-5.4-6.9-7.4c.1-1.9.2-9.8 15.1-24.9C36.1-3.8 44-4 45.9-4.1c1.9-.1 6.4 5.4 7.4 6.8 1 1.4.6 2.8-.1 3.3-.8.6-9.2 6.2-10.1 6.8-.7.4-1.8.3-2.8-.3-1.1-.6-5.1-2.9-5.1-2.9s-2.8 1.6-8.3 7.2c-5.5 5.7-7.1 8.5-7.1 8.5z"/></svg>