<svg id="Layer_1" xmlns="http://www.w3.org/2000/svg" viewBox="0 0 457 469.5"><style>.st0{fill:#333131}</style><g id="XMLID_1_"><g id="XMLID_20_"><path id="XMLID_24_" d="M7.9 86c10.8 5.5 21.7 11.1 32.5 16.6 25.9 13.2 51.7 26.4 77.6 39.6 31.4 16.1 62.9 32.1 94.3 48.2 27.2 13.9 54.4 27.8 81.5 41.6 13.2 6.7 26.2 13.7 39.5 20.2l.6.3c7.2 3.7 16.3 1.9 20.5-5.4 3.9-6.7 1.9-16.8-5.4-20.5-10.8-5.5-21.7-11.1-32.5-16.6-25.9-13.2-51.7-26.4-77.6-39.6-31.4-16.1-62.9-32.1-94.3-48.2-27.2-13.9-54.4-27.8-81.5-41.6C50 73.8 36.9 66.8 23.7 60.3l-.6-.3c-7.2-3.7-16.3-1.9-20.5 5.4-4 6.7-1.9 16.9 5.3 20.6z"/></g></g><g id="XMLID_2_"><g id="XMLID_19_"><path id="XMLID_28_" d="M333.9 227.5c-10.8 5.2-21.5 10.5-32.3 15.7-26 12.7-52 25.4-78.1 38-31.3 15.3-62.7 30.5-94 45.8l-81.3 39.6C35 373.2 21.3 379 8.5 386.1c-.2.1-.4.2-.5.3-7.3 3.5-9.3 13.9-5.4 20.5 4.3 7.4 13.2 8.9 20.5 5.4 10.8-5.2 21.5-10.5 32.3-15.7 26-12.7 52-25.4 78.1-38 31.3-15.3 62.7-30.5 94-45.8l81.3-39.6c13.2-6.4 26.9-12.2 39.7-19.4.2-.1.4-.2.5-.3 7.3-3.5 9.3-13.9 5.4-20.5-4.3-7.5-13.2-9-20.5-5.5z"/></g></g><g id="XMLID_3_"><path id="XMLID_39_" class="st0" d="M441.5 239.5l-426 215"/><g id="XMLID_29_"><path id="XMLID_33_" d="M433.9 226.5c-14.2 7.1-28.3 14.3-42.5 21.4-33.9 17.1-67.7 34.2-101.6 51.3-40.9 20.7-81.9 41.3-122.8 62-35.5 17.9-71.1 35.9-106.6 53.8-17.2 8.7-35 16.7-51.8 26.1-.2.1-.5.2-.7.4-7.2 3.6-9.3 13.8-5.4 20.5 4.3 7.4 13.3 9 20.5 5.4 14.2-7.1 28.3-14.3 42.5-21.4 33.9-17.1 67.7-34.2 101.6-51.3 40.9-20.7 81.9-41.3 122.8-62 35.5-17.9 71.1-35.9 106.6-53.8 17.2-8.7 35-16.7 51.8-26.1.2-.1.5-.2.7-.4 7.2-3.6 9.3-13.8 5.4-20.5-4.2-7.3-13.2-9-20.5-5.4z"/></g></g><g id="XMLID_4_"><g id="XMLID_34_"><path id="XMLID_38_" d="M7.9 28.5C22 35.9 36.2 43.3 50.3 50.7c33.9 17.8 67.8 35.7 101.7 53.5 41.2 21.7 82.4 43.3 123.5 65 35.5 18.7 70.9 37.3 106.4 56 17.2 9.1 34.4 18.5 51.8 27.2.2.1.5.3.7.4 7.2 3.8 16.3 1.8 20.5-5.4 4-6.8 1.8-16.7-5.4-20.5-14.1-7.4-28.2-14.8-42.3-22.3-33.9-17.8-67.8-35.7-101.7-53.5-41.2-21.7-82.4-43.3-123.5-65-35.5-18.7-70.9-37.3-106.4-56-17.3-9-34.4-18.4-51.8-27.2-.2-.1-.5-.3-.7-.4C15.9-1.2 6.8.7 2.5 7.9-1.4 14.7.7 24.7 7.9 28.5z"/></g></g></svg>